<svg width="33" height="33" viewBox="0 0 33 33" fill="none" xmlns="http://www.w3.org/2000/svg">
<path d="M17.2032 29.3032L17.203 29.3032C14.6227 29.3032 12.2285 27.9005 10.4623 25.5611C8.69642 23.2222 7.58324 19.973 7.58324 16.375C7.58324 10.7752 10.235 6.13586 13.7918 4.29259C13.2589 5.66112 12.9568 7.14796 12.9568 8.63923C12.9568 11.8851 14.1768 14.8343 16.4603 17.1178C19.7811 20.4386 20.1976 25.5058 17.8349 29.2849C17.6223 29.303 17.4223 29.3033 17.2032 29.3032Z" fill="#D17842" stroke="#141921"/>
<path d="M15.9088 4.19411V4.19413L15.9132 4.19409C18.5152 4.17148 20.9074 5.5727 22.667 7.91693C24.4268 10.2613 25.5286 13.5228 25.5286 17.1224C25.5286 22.6147 22.5512 26.8696 18.9363 28.6899C19.1388 28.318 19.3365 27.9431 19.5044 27.575C19.8766 26.7589 20.1551 25.8783 20.1551 24.8582C20.1551 21.6123 18.9351 18.6631 16.6516 16.3796C13.2778 13.0058 12.2255 8.09116 14.5354 4.37089C14.5538 4.36811 14.5727 4.36526 14.5921 4.36235C14.7549 4.33782 14.9477 4.30878 15.1609 4.27871C15.5144 4.22886 15.8063 4.19411 15.9088 4.19411Z" fill="#D17842" stroke="#141921"/>
</svg>
