<svg width="9" height="10" viewBox="0 0 9 10" fill="none" xmlns="http://www.w3.org/2000/svg">
<path d="M4.88705 1.46235L5.62039 2.92902C5.72039 3.13319 5.98706 3.32902 6.21206 3.36652L7.54122 3.58735C8.39122 3.72902 8.59122 4.34569 7.97872 4.95402L6.94539 5.98735C6.77039 6.16235 6.67455 6.49985 6.72872 6.74152L7.02456 8.02069C7.25789 9.03319 6.72039 9.42485 5.82455 8.89569L4.57872 8.15819C4.35372 8.02485 3.98289 8.02485 3.75372 8.15819L2.50789 8.89569C1.61622 9.42485 1.07456 9.02902 1.30789 8.02069L1.60372 6.74152C1.65789 6.49985 1.56206 6.16235 1.38706 5.98735L0.353722 4.95402C-0.254611 4.34569 -0.058778 3.72902 0.791222 3.58735L2.12039 3.36652C2.34122 3.32902 2.60789 3.13319 2.70789 2.92902L3.44122 1.46235C3.84122 0.66652 4.49122 0.66652 4.88705 1.46235Z" fill="#D17842"/>
</svg>
